<svg xmlns="http://www.w3.org/2000/svg" xmlns:xlink="http://www.w3.org/1999/xlink" width="500" zoomAndPan="magnify" viewBox="0 0 375 374.999991" height="500" preserveAspectRatio="xMidYMid meet" version="1.0"><defs><g/><clipPath id="f65c36436f"><path d="M 54 117.75 L 78 117.75 L 78 221 L 54 221 Z M 54 117.75 " clip-rule="nonzero"/></clipPath><clipPath id="8cf534db10"><path d="M 54 209 L 78 209 L 78 232.914062 L 54 232.914062 Z M 54 209 " clip-rule="nonzero"/></clipPath><clipPath id="f9d316e970"><path d="M 72 163 L 123.667969 163 L 123.667969 187 L 72 187 Z M 72 163 " clip-rule="nonzero"/></clipPath><clipPath id="eb56271dbb"><path d="M 100 186 L 123.667969 186 L 123.667969 210 L 100 210 Z M 100 186 " clip-rule="nonzero"/></clipPath><clipPath id="d3225f2522"><path d="M 100 177 L 123.667969 177 L 123.667969 232.914062 L 100 232.914062 Z M 100 177 " clip-rule="nonzero"/></clipPath><clipPath id="bb1a610f1a"><path d="M 100 117.75 L 123.667969 117.75 L 123.667969 141 L 100 141 Z M 100 117.75 " clip-rule="nonzero"/></clipPath><clipPath id="de31f25628"><path d="M 131.160156 117.75 L 226.0625 117.75 L 226.0625 244.109375 L 131.160156 244.109375 Z M 131.160156 117.75 " clip-rule="nonzero"/></clipPath><clipPath id="ab0f02622a"><path d="M 100.574219 111.527344 L 122.96875 111.527344 L 122.96875 146.183594 L 100.574219 146.183594 Z M 100.574219 111.527344 " clip-rule="nonzero"/></clipPath></defs><g clip-path="url(#f65c36436f)"><path fill="#111827" d="M 54.027344 117.753906 L 77.070312 117.753906 L 77.070312 220.050781 L 54.027344 220.050781 Z M 54.027344 117.753906 " fill-opacity="1" fill-rule="nonzero"/></g><path fill="#111827" d="M 54.027344 140.78125 L 77.070312 140.78125 L 77.070312 163.8125 L 54.027344 163.8125 Z M 54.027344 140.78125 " fill-opacity="1" fill-rule="nonzero"/><path fill="#111827" d="M 54.027344 163.8125 L 77.070312 163.8125 L 77.070312 186.839844 L 54.027344 186.839844 Z M 54.027344 163.8125 " fill-opacity="1" fill-rule="nonzero"/><path fill="#111827" d="M 54.027344 186.839844 L 77.070312 186.839844 L 77.070312 209.867188 L 54.027344 209.867188 Z M 54.027344 186.839844 " fill-opacity="1" fill-rule="nonzero"/><g clip-path="url(#8cf534db10)"><path fill="#111827" d="M 54.027344 209.867188 L 77.070312 209.867188 L 77.070312 232.898438 L 54.027344 232.898438 Z M 54.027344 209.867188 " fill-opacity="1" fill-rule="nonzero"/></g><path fill="#111827" d="M 77.070312 163.8125 L 100.109375 163.8125 L 100.109375 186.839844 L 77.070312 186.839844 Z M 77.070312 163.8125 " fill-opacity="1" fill-rule="nonzero"/><g clip-path="url(#f9d316e970)"><path fill="#111827" d="M 72.078125 163.8125 L 123.148438 163.8125 L 123.148438 186.839844 L 72.078125 186.839844 Z M 72.078125 163.8125 " fill-opacity="1" fill-rule="nonzero"/></g><g clip-path="url(#eb56271dbb)"><path fill="#111827" d="M 100.109375 186.839844 L 123.148438 186.839844 L 123.148438 209.867188 L 100.109375 209.867188 Z M 100.109375 186.839844 " fill-opacity="1" fill-rule="nonzero"/></g><g clip-path="url(#d3225f2522)"><path fill="#111827" d="M 100.109375 177.292969 L 123.148438 177.292969 L 123.148438 232.898438 L 100.109375 232.898438 Z M 100.109375 177.292969 " fill-opacity="1" fill-rule="nonzero"/></g><g clip-path="url(#bb1a610f1a)"><path fill="#111827" d="M 100.109375 117.753906 L 123.148438 117.753906 L 123.148438 140.78125 L 100.109375 140.78125 Z M 100.109375 117.753906 " fill-opacity="1" fill-rule="nonzero"/></g><g clip-path="url(#de31f25628)"><path fill="#4c1d95" d="M 157.742188 159.597656 L 157.742188 185.996094 L 178.609375 185.996094 C 184.300781 185.996094 189.511719 183.632812 193.308594 179.835938 C 197.109375 176.042969 199.476562 170.839844 199.476562 165.15625 C 199.476562 159.472656 197.109375 154.269531 193.308594 150.476562 C 189.511719 146.683594 184.300781 144.320312 178.609375 144.320312 L 157.742188 144.320312 L 131.160156 117.773438 L 178.609375 117.773438 C 191.640625 117.773438 203.507812 123.121094 212.105469 131.707031 C 220.707031 140.296875 226.058594 152.144531 226.058594 165.15625 C 226.058594 178.167969 220.707031 190.019531 212.105469 198.605469 C 203.507812 207.195312 191.640625 212.542969 178.609375 212.542969 L 157.742188 212.542969 L 157.742188 244.089844 L 131.160156 220.792969 L 131.160156 159.597656 Z M 157.742188 159.597656 " fill-opacity="1" fill-rule="nonzero"/></g><path fill="#ffffff" d="M 107.839844 129.625 L 110.792969 129.625 C 111.003906 129.625 111.1875 129.550781 111.335938 129.402344 C 111.488281 129.253906 111.5625 129.070312 111.5625 128.859375 L 111.5625 124.464844 C 111.5625 124.253906 111.488281 124.074219 111.335938 123.921875 C 111.1875 123.773438 111.003906 123.699219 110.792969 123.699219 C 110.578125 123.699219 110.398438 123.773438 110.246094 123.921875 C 110.097656 124.074219 110.023438 124.253906 110.023438 124.464844 L 110.023438 128.097656 L 107.839844 128.097656 C 107.628906 128.097656 107.445312 128.171875 107.296875 128.320312 C 107.144531 128.46875 107.070312 128.648438 107.070312 128.859375 C 107.070312 129.070312 107.144531 129.253906 107.296875 129.402344 C 107.445312 129.550781 107.628906 129.625 107.839844 129.625 Z M 107.839844 129.625 " fill-opacity="1" fill-rule="nonzero"/><g clip-path="url(#ab0f02622a)"><path fill="#ffffff" d="M 103.902344 136.230469 L 104.695312 145.492188 C 104.714844 145.6875 104.796875 145.855469 104.945312 145.988281 C 105.09375 146.125 105.265625 146.191406 105.46875 146.191406 L 116.128906 146.191406 C 116.328125 146.191406 116.503906 146.125 116.652344 145.988281 C 116.796875 145.855469 116.882812 145.6875 116.898438 145.492188 L 117.707031 136.078125 C 119.070312 134.78125 119.992188 133.222656 120.476562 131.410156 L 120.761719 131.410156 C 121.050781 131.410156 121.324219 131.351562 121.589844 131.242188 C 121.855469 131.136719 122.089844 130.980469 122.292969 130.777344 C 122.496094 130.578125 122.652344 130.34375 122.761719 130.082031 C 122.871094 129.816406 122.929688 129.542969 122.929688 129.257812 L 122.929688 128.589844 C 122.929688 128.304688 122.871094 128.03125 122.761719 127.765625 C 122.652344 127.503906 122.496094 127.269531 122.292969 127.070312 C 122.089844 126.867188 121.855469 126.710938 121.589844 126.605469 C 121.324219 126.496094 121.050781 126.4375 120.761719 126.4375 L 120.507812 126.4375 C 120.039062 124.570312 119.101562 122.972656 117.703125 121.640625 L 116.894531 112.226562 C 116.878906 112.03125 116.792969 111.863281 116.648438 111.730469 C 116.5 111.59375 116.324219 111.527344 116.125 111.527344 L 105.460938 111.527344 C 105.257812 111.527344 105.085938 111.59375 104.9375 111.730469 C 104.789062 111.863281 104.707031 112.03125 104.6875 112.226562 L 103.902344 121.488281 C 103.386719 121.957031 102.925781 122.472656 102.519531 123.035156 C 102.113281 123.597656 101.769531 124.199219 101.488281 124.832031 C 101.207031 125.46875 100.992188 126.125 100.851562 126.800781 C 100.707031 127.480469 100.636719 128.167969 100.636719 128.859375 C 100.636719 129.554688 100.707031 130.238281 100.851562 130.917969 C 100.992188 131.59375 101.207031 132.253906 101.488281 132.886719 C 101.769531 133.519531 102.113281 134.121094 102.519531 134.683594 C 102.925781 135.246094 103.386719 135.761719 103.902344 136.230469 Z M 115.425781 144.660156 L 106.179688 144.660156 L 105.5625 137.453125 C 106.359375 137.925781 107.203125 138.285156 108.09375 138.523438 C 108.988281 138.765625 109.898438 138.882812 110.824219 138.871094 C 111.75 138.863281 112.65625 138.730469 113.546875 138.476562 C 114.4375 138.21875 115.273438 137.847656 116.058594 137.359375 Z M 121.394531 128.589844 L 121.394531 129.257812 C 121.394531 129.429688 121.332031 129.578125 121.207031 129.699219 C 121.085938 129.820312 120.9375 129.882812 120.761719 129.878906 C 120.796875 129.539062 120.8125 129.203125 120.8125 128.859375 C 120.8125 128.558594 120.796875 128.261719 120.769531 127.96875 C 120.941406 127.972656 121.085938 128.035156 121.207031 128.15625 C 121.328125 128.273438 121.386719 128.421875 121.386719 128.589844 Z M 106.167969 113.058594 L 115.410156 113.058594 L 116.039062 120.359375 C 115.25 119.875 114.414062 119.5 113.527344 119.246094 C 112.636719 118.988281 111.730469 118.855469 110.804688 118.847656 C 109.878906 118.839844 108.96875 118.953125 108.074219 119.195312 C 107.179688 119.4375 106.335938 119.792969 105.542969 120.265625 Z M 110.71875 120.375 C 111.28125 120.375 111.835938 120.429688 112.386719 120.539062 C 112.9375 120.648438 113.472656 120.808594 113.992188 121.019531 C 114.511719 121.234375 115.003906 121.496094 115.46875 121.804688 C 115.9375 122.113281 116.367188 122.464844 116.765625 122.859375 C 117.160156 123.253906 117.515625 123.683594 117.828125 124.148438 C 118.140625 124.609375 118.402344 125.097656 118.617188 125.613281 C 118.832031 126.128906 118.996094 126.660156 119.105469 127.207031 C 119.214844 127.75 119.269531 128.304688 119.269531 128.859375 C 119.269531 129.417969 119.214844 129.96875 119.105469 130.515625 C 118.996094 131.0625 118.832031 131.59375 118.617188 132.109375 C 118.402344 132.621094 118.140625 133.113281 117.828125 133.574219 C 117.515625 134.039062 117.160156 134.464844 116.765625 134.859375 C 116.367188 135.253906 115.9375 135.605469 115.46875 135.914062 C 115.003906 136.226562 114.511719 136.488281 113.992188 136.699219 C 113.472656 136.914062 112.9375 137.074219 112.386719 137.183594 C 111.835938 137.292969 111.28125 137.347656 110.71875 137.347656 C 110.15625 137.347656 109.601562 137.292969 109.050781 137.183594 C 108.5 137.074219 107.964844 136.914062 107.449219 136.699219 C 106.929688 136.488281 106.4375 136.226562 105.96875 135.914062 C 105.503906 135.605469 105.070312 135.253906 104.671875 134.859375 C 104.277344 134.464844 103.921875 134.039062 103.609375 133.574219 C 103.296875 133.113281 103.035156 132.621094 102.820312 132.109375 C 102.605469 131.59375 102.441406 131.0625 102.332031 130.515625 C 102.222656 129.96875 102.167969 129.417969 102.167969 128.859375 C 102.167969 128.304688 102.226562 127.753906 102.335938 127.207031 C 102.445312 126.660156 102.605469 126.128906 102.824219 125.613281 C 103.039062 125.101562 103.300781 124.613281 103.613281 124.148438 C 103.925781 123.683594 104.277344 123.257812 104.675781 122.863281 C 105.074219 122.46875 105.503906 122.117188 105.972656 121.808594 C 106.4375 121.5 106.929688 121.238281 107.449219 121.023438 C 107.96875 120.808594 108.5 120.648438 109.050781 120.539062 C 109.601562 120.429688 110.15625 120.375 110.71875 120.375 Z M 110.71875 120.375 " fill-opacity="1" fill-rule="nonzero"/></g><g fill="#000000" fill-opacity="1"><g transform="translate(73.637049, 269.965346)"><g><path d="M 9.328125 -7.5 L 9.328125 -12.03125 L 11.703125 -12.03125 L 11.703125 0 L 9.328125 0 L 9.328125 -5.484375 L 3.9375 -5.484375 L 3.9375 0 L 1.5625 0 L 1.5625 -12.03125 L 3.9375 -12.03125 L 3.9375 -7.5 Z M 9.328125 -7.5 "/></g></g></g><g fill="#000000" fill-opacity="1"><g transform="translate(90.137228, 269.965346)"><g><path d="M 6.5625 0.171875 C 5.457031 0.171875 4.484375 -0.0507812 3.640625 -0.5 C 2.796875 -0.945312 2.132812 -1.632812 1.65625 -2.5625 C 1.1875 -3.488281 0.953125 -4.640625 0.953125 -6.015625 C 0.953125 -7.390625 1.1875 -8.539062 1.65625 -9.46875 C 2.132812 -10.394531 2.796875 -11.082031 3.640625 -11.53125 C 4.484375 -11.976562 5.457031 -12.203125 6.5625 -12.203125 C 7.664062 -12.203125 8.632812 -11.976562 9.46875 -11.53125 C 10.3125 -11.082031 10.96875 -10.394531 11.4375 -9.46875 C 11.914062 -8.539062 12.15625 -7.390625 12.15625 -6.015625 C 12.15625 -4.640625 11.914062 -3.488281 11.4375 -2.5625 C 10.96875 -1.632812 10.3125 -0.945312 9.46875 -0.5 C 8.632812 -0.0507812 7.664062 0.171875 6.5625 0.171875 Z M 6.5625 -1.890625 C 7.582031 -1.890625 8.359375 -2.21875 8.890625 -2.875 C 9.429688 -3.53125 9.703125 -4.578125 9.703125 -6.015625 C 9.703125 -7.453125 9.429688 -8.5 8.890625 -9.15625 C 8.359375 -9.820312 7.582031 -10.15625 6.5625 -10.15625 C 5.53125 -10.15625 4.742188 -9.820312 4.203125 -9.15625 C 3.671875 -8.5 3.40625 -7.453125 3.40625 -6.015625 C 3.40625 -4.578125 3.671875 -3.53125 4.203125 -2.875 C 4.742188 -2.21875 5.53125 -1.890625 6.5625 -1.890625 Z M 6.5625 -1.890625 "/></g></g></g><g fill="#000000" fill-opacity="1"><g transform="translate(106.47276, 269.965346)"><g><path d="M 1.5625 0 L 1.5625 -12.03125 L 6.390625 -12.03125 C 7.640625 -12.03125 8.582031 -11.742188 9.21875 -11.171875 C 9.851562 -10.597656 10.171875 -9.804688 10.171875 -8.796875 C 10.171875 -8.066406 9.984375 -7.46875 9.609375 -7 C 9.242188 -6.539062 8.691406 -6.1875 7.953125 -5.9375 L 7.953125 -5.765625 C 8.328125 -5.597656 8.628906 -5.351562 8.859375 -5.03125 C 9.097656 -4.707031 9.320312 -4.226562 9.53125 -3.59375 L 10.734375 0 L 8.296875 0 L 7.109375 -3.59375 C 6.992188 -3.957031 6.859375 -4.238281 6.703125 -4.4375 C 6.554688 -4.632812 6.363281 -4.78125 6.125 -4.875 C 5.894531 -4.96875 5.59375 -5.015625 5.21875 -5.015625 L 3.9375 -5.015625 L 3.9375 0 Z M 6.109375 -6.90625 C 7.265625 -6.90625 7.84375 -7.441406 7.84375 -8.515625 C 7.84375 -9.609375 7.265625 -10.15625 6.109375 -10.15625 L 3.9375 -10.15625 L 3.9375 -6.90625 Z M 6.109375 -6.90625 "/></g></g></g><g fill="#000000" fill-opacity="1"><g transform="translate(120.947793, 269.965346)"><g><path d="M 6.5625 0.171875 C 5.457031 0.171875 4.484375 -0.0507812 3.640625 -0.5 C 2.796875 -0.945312 2.132812 -1.632812 1.65625 -2.5625 C 1.1875 -3.488281 0.953125 -4.640625 0.953125 -6.015625 C 0.953125 -7.390625 1.1875 -8.539062 1.65625 -9.46875 C 2.132812 -10.394531 2.796875 -11.082031 3.640625 -11.53125 C 4.484375 -11.976562 5.457031 -12.203125 6.5625 -12.203125 C 7.664062 -12.203125 8.632812 -11.976562 9.46875 -11.53125 C 10.3125 -11.082031 10.96875 -10.394531 11.4375 -9.46875 C 11.914062 -8.539062 12.15625 -7.390625 12.15625 -6.015625 C 12.15625 -4.640625 11.914062 -3.488281 11.4375 -2.5625 C 10.96875 -1.632812 10.3125 -0.945312 9.46875 -0.5 C 8.632812 -0.0507812 7.664062 0.171875 6.5625 0.171875 Z M 6.5625 -1.890625 C 7.582031 -1.890625 8.359375 -2.21875 8.890625 -2.875 C 9.429688 -3.53125 9.703125 -4.578125 9.703125 -6.015625 C 9.703125 -7.453125 9.429688 -8.5 8.890625 -9.15625 C 8.359375 -9.820312 7.582031 -10.15625 6.5625 -10.15625 C 5.53125 -10.15625 4.742188 -9.820312 4.203125 -9.15625 C 3.671875 -8.5 3.40625 -7.453125 3.40625 -6.015625 C 3.40625 -4.578125 3.671875 -3.53125 4.203125 -2.875 C 4.742188 -2.21875 5.53125 -1.890625 6.5625 -1.890625 Z M 6.5625 -1.890625 "/></g></g></g><g fill="#000000" fill-opacity="1"><g transform="translate(137.283325, 269.965346)"><g><path d="M 6.21875 -12.03125 C 7.070312 -12.03125 7.804688 -11.875 8.421875 -11.5625 C 9.035156 -11.25 9.5 -10.804688 9.8125 -10.234375 C 10.125 -9.671875 10.28125 -9.007812 10.28125 -8.25 C 10.28125 -7.5 10.125 -6.84375 9.8125 -6.28125 C 9.5 -5.71875 9.035156 -5.273438 8.421875 -4.953125 C 7.804688 -4.640625 7.070312 -4.484375 6.21875 -4.484375 L 3.9375 -4.484375 L 3.9375 0 L 1.5625 0 L 1.5625 -12.03125 Z M 5.90625 -6.375 C 7.226562 -6.375 7.890625 -7 7.890625 -8.25 C 7.890625 -9.519531 7.226562 -10.15625 5.90625 -10.15625 L 3.9375 -10.15625 L 3.9375 -6.375 Z M 5.90625 -6.375 "/></g></g></g><g fill="#000000" fill-opacity="1"><g transform="translate(151.503154, 269.965346)"><g><path d="M 9.328125 -7.5 L 9.328125 -12.03125 L 11.703125 -12.03125 L 11.703125 0 L 9.328125 0 L 9.328125 -5.484375 L 3.9375 -5.484375 L 3.9375 0 L 1.5625 0 L 1.5625 -12.03125 L 3.9375 -12.03125 L 3.9375 -7.5 Z M 9.328125 -7.5 "/></g></g></g><g fill="#000000" fill-opacity="1"><g transform="translate(168.003336, 269.965346)"><g><path d="M 3.9375 0 L 1.5625 0 L 1.5625 -12.03125 L 3.9375 -12.03125 Z M 3.9375 0 "/></g></g></g><g fill="#000000" fill-opacity="1"><g transform="translate(176.740453, 269.965346)"><g><path d="M 3.9375 -12.03125 L 3.9375 -1.984375 L 9.359375 -1.984375 L 9.359375 0 L 1.5625 0 L 1.5625 -12.03125 Z M 3.9375 -12.03125 "/></g></g></g><g fill="#000000" fill-opacity="1"><g transform="translate(189.708973, 269.965346)"><g><path d="M 3.9375 -5.28125 L 3.9375 -1.984375 L 9.6875 -1.984375 L 9.6875 0 L 1.5625 0 L 1.5625 -12.03125 L 9.5625 -12.03125 L 9.5625 -10.046875 L 3.9375 -10.046875 L 3.9375 -7.234375 L 8.84375 -7.234375 L 8.84375 -5.28125 Z M 3.9375 -5.28125 "/></g></g></g></svg>